<?xml version="1.0" encoding="UTF-8"?><svg xmlns="http://www.w3.org/2000/svg" xmlns:xlink="http://www.w3.org/1999/xlink" contentScriptType="text/ecmascript" width="375pt" zoomAndPan="magnify" contentStyleType="text/css" viewBox="0 0 375 74.999997" height="74.999997pt" preserveAspectRatio="xMidYMid meet" version="1.2"><defs><g/><clipPath xml:id="clip1" id="clip1"><path d="M 0.75 7.5 L 59.46875 7.5 L 59.46875 66.21875 L 0.75 66.21875 Z M 0.75 7.5 "/></clipPath></defs><g xml:id="surface1" id="surface1"><g clip-rule="nonzero" clip-path="url(#clip1)"><path style=" stroke:none;fill-rule:nonzero;fill:rgb(49.409485%,85.099792%,34.118652%);fill-opacity:1;" d="M 30.109375 7.5 C 13.910156 7.5 0.75 20.660156 0.75 36.859375 C 0.75 53.058594 13.910156 66.21875 30.109375 66.21875 C 46.308594 66.21875 59.46875 53.058594 59.46875 36.859375 C 59.46875 20.660156 46.308594 7.5 30.109375 7.5 Z M 30.109375 10.054688 C 44.929688 10.054688 56.914062 22.039062 56.914062 36.859375 C 56.914062 51.679688 44.929688 63.664062 30.109375 63.664062 C 15.289062 63.664062 3.304688 51.679688 3.304688 36.859375 C 3.304688 22.039062 15.289062 10.054688 30.109375 10.054688 Z M 30.109375 22.808594 C 29.910156 22.808594 29.714844 22.855469 29.535156 22.945312 L 6.558594 33.15625 C 6.125 33.375 5.855469 33.820312 5.855469 34.304688 C 5.855469 34.792969 6.125 35.238281 6.558594 35.457031 L 9.683594 37.589844 L 9.683594 44.875 C 8.925781 45.320312 8.410156 46.132812 8.410156 47.070312 C 8.410156 48.476562 10.960938 52.175781 10.960938 52.175781 C 10.960938 52.175781 13.515625 48.476562 13.515625 47.070312 C 13.515625 46.132812 12.996094 45.320312 12.238281 44.875 L 12.238281 39.332031 L 13.515625 40.203125 L 13.515625 38.136719 C 13.515625 37.179688 13.746094 36.375 14.152344 35.683594 C 16.515625 31.753906 24.824219 31.753906 30.109375 31.753906 C 35.242188 31.753906 43.230469 31.753906 45.847656 35.367188 C 46.398438 36.117188 46.703125 37.039062 46.703125 38.136719 L 46.703125 40.203125 L 53.660156 35.441406 C 54.09375 35.238281 54.363281 34.792969 54.363281 34.304688 C 54.363281 33.820312 54.09375 33.375 53.660156 33.15625 L 30.683594 22.945312 C 30.503906 22.855469 30.308594 22.808594 30.109375 22.808594 Z M 30.109375 34.304688 C 22.960938 34.304688 16.066406 34.804688 16.066406 38.136719 L 16.066406 41.261719 C 18.289062 40.242188 22.410156 39.414062 30.109375 39.414062 C 37.804688 39.414062 41.929688 40.242188 44.152344 41.261719 L 44.152344 38.136719 C 44.152344 34.804688 37.257812 34.304688 30.109375 34.304688 Z M 30.109375 41.964844 C 29.1875 41.964844 28.273438 41.980469 27.371094 42.015625 C 26.464844 42.046875 25.585938 42.09375 24.734375 42.160156 C 23.882812 42.222656 23.074219 42.300781 22.308594 42.394531 C 21.542969 42.488281 20.832031 42.59375 20.179688 42.714844 C 19.527344 42.832031 18.945312 42.960938 18.433594 43.101562 C 17.921875 43.238281 17.488281 43.386719 17.136719 43.542969 C 16.785156 43.695312 16.515625 43.855469 16.335938 44.019531 C 16.15625 44.183594 16.066406 44.351562 16.066406 44.519531 C 16.066406 44.6875 16.15625 44.851562 16.335938 45.015625 C 16.515625 45.179688 16.785156 45.339844 17.136719 45.496094 C 17.488281 45.648438 17.921875 45.796875 18.433594 45.9375 C 18.945312 46.074219 19.527344 46.203125 20.179688 46.324219 C 20.832031 46.441406 21.542969 46.546875 22.308594 46.640625 C 23.074219 46.734375 23.882812 46.8125 24.734375 46.875 C 25.585938 46.941406 26.464844 46.988281 27.371094 47.023438 C 28.273438 47.054688 29.1875 47.070312 30.109375 47.070312 C 31.03125 47.070312 31.945312 47.054688 32.847656 47.023438 C 33.753906 46.988281 34.632812 46.941406 35.484375 46.875 C 36.335938 46.8125 37.144531 46.734375 37.910156 46.640625 C 38.675781 46.546875 39.386719 46.441406 40.039062 46.324219 C 40.691406 46.203125 41.273438 46.074219 41.785156 45.9375 C 42.296875 45.796875 42.730469 45.648438 43.082031 45.496094 C 43.433594 45.339844 43.699219 45.179688 43.878906 45.015625 C 44.0625 44.851562 44.152344 44.6875 44.152344 44.519531 C 44.152344 44.351562 44.0625 44.183594 43.878906 44.019531 C 43.699219 43.855469 43.433594 43.695312 43.082031 43.542969 C 42.730469 43.386719 42.296875 43.238281 41.785156 43.101562 C 41.273438 42.960938 40.691406 42.832031 40.039062 42.714844 C 39.386719 42.59375 38.675781 42.488281 37.910156 42.394531 C 37.144531 42.300781 36.335938 42.222656 35.484375 42.160156 C 34.632812 42.09375 33.753906 42.046875 32.847656 42.015625 C 31.945312 41.980469 31.03125 41.964844 30.109375 41.964844 Z M 30.109375 41.964844 "/></g><g style="fill:rgb(49.409485%,85.099792%,34.118652%);fill-opacity:1;"><g transform="translate(59.72425, 53.004713)"><path style="stroke:none;" d="M 23.121094 -30.3125 L 0.910156 -30.3125 L 0.910156 -26.714844 L 10.132812 -26.714844 L 10.132812 0 L 13.898438 0 L 13.898438 -26.714844 L 23.121094 -26.714844 Z M 23.121094 -30.3125 "/></g></g><g style="fill:rgb(49.409485%,85.099792%,34.118652%);fill-opacity:1;"><g transform="translate(83.796302, 53.004713)"><path style="stroke:none;" d="M 25.546875 -11.5625 C 25.546875 -18.402344 20.871094 -23.859375 13.769531 -23.859375 C 6.972656 -23.859375 1.863281 -18.621094 1.863281 -11.691406 C 1.863281 -4.71875 6.972656 0.519531 13.769531 0.519531 C 18.835938 0.519531 22.949219 -2.296875 24.941406 -7.101562 L 21.042969 -7.101562 C 19.617188 -4.589844 17.015625 -3.074219 13.769531 -3.074219 C 9.351562 -3.074219 6.105469 -5.933594 5.542969 -10.261719 L 25.460938 -10.261719 C 25.503906 -10.695312 25.546875 -11.128906 25.546875 -11.5625 Z M 13.769531 -20.394531 C 17.925781 -20.394531 21.085938 -17.796875 21.867188 -13.640625 L 5.628906 -13.640625 C 6.367188 -17.710938 9.527344 -20.394531 13.769531 -20.394531 Z M 13.769531 -20.394531 "/></g></g><g style="fill:rgb(49.409485%,85.099792%,34.118652%);fill-opacity:1;"><g transform="translate(111.158782, 53.004713)"><path style="stroke:none;" d="M 23.640625 -23.382812 L 23.164062 -19.789062 C 21 -22.34375 17.753906 -23.859375 13.941406 -23.859375 C 7.015625 -23.859375 1.820312 -18.664062 1.820312 -11.648438 C 1.820312 -4.71875 7.015625 0.519531 13.941406 0.519531 C 17.753906 0.519531 20.957031 -0.996094 23.121094 -3.507812 L 23.511719 0 L 26.542969 0 L 26.542969 -23.382812 Z M 14.203125 -3.03125 C 9.265625 -3.03125 5.585938 -6.753906 5.585938 -11.691406 C 5.585938 -16.585938 9.265625 -20.308594 14.203125 -20.308594 C 19.183594 -20.308594 22.777344 -16.628906 22.777344 -11.691406 C 22.777344 -6.710938 19.183594 -3.03125 14.203125 -3.03125 Z M 14.203125 -3.03125 "/></g></g><g style="fill:rgb(49.409485%,85.099792%,34.118652%);fill-opacity:1;"><g transform="translate(141.422024, 53.004713)"><path style="stroke:none;" d="M 13.984375 0.519531 C 19.527344 0.519531 23.988281 -2.816406 25.417969 -7.96875 L 21.695312 -7.96875 C 20.265625 -4.851562 17.40625 -3.03125 13.984375 -3.03125 C 9.222656 -3.03125 5.585938 -6.796875 5.585938 -11.691406 C 5.585938 -16.539062 9.179688 -20.308594 13.984375 -20.308594 C 17.449219 -20.308594 20.351562 -18.488281 21.695312 -15.457031 L 25.375 -15.457031 C 23.945312 -20.566406 19.570312 -23.859375 13.984375 -23.859375 C 7.058594 -23.859375 1.820312 -18.664062 1.820312 -11.691406 C 1.820312 -4.71875 7.058594 0.519531 13.984375 0.519531 Z M 13.984375 0.519531 "/></g></g><g style="fill:rgb(49.409485%,85.099792%,34.118652%);fill-opacity:1;"><g transform="translate(168.264959, 53.004713)"><path style="stroke:none;" d="M 15.371094 -23.859375 C 11.996094 -23.859375 9.179688 -22.472656 7.359375 -20.179688 L 7.359375 -31.695312 L 3.679688 -31.695312 L 3.679688 0 L 7.359375 0 L 7.359375 -12.730469 C 7.359375 -17.105469 10.433594 -20.523438 14.460938 -20.523438 C 18.488281 -20.523438 20.742188 -17.839844 20.742188 -13.121094 L 20.742188 0 L 24.421875 0 L 24.421875 -13.984375 C 24.421875 -20.046875 20.957031 -23.859375 15.371094 -23.859375 Z M 15.371094 -23.859375 "/></g></g><g style="fill:rgb(49.409485%,85.099792%,34.118652%);fill-opacity:1;"><g transform="translate(196.060388, 53.004713)"><path style="stroke:none;" d="M 25.546875 -11.5625 C 25.546875 -18.402344 20.871094 -23.859375 13.769531 -23.859375 C 6.972656 -23.859375 1.863281 -18.621094 1.863281 -11.691406 C 1.863281 -4.71875 6.972656 0.519531 13.769531 0.519531 C 18.835938 0.519531 22.949219 -2.296875 24.941406 -7.101562 L 21.042969 -7.101562 C 19.617188 -4.589844 17.015625 -3.074219 13.769531 -3.074219 C 9.351562 -3.074219 6.105469 -5.933594 5.542969 -10.261719 L 25.460938 -10.261719 C 25.503906 -10.695312 25.546875 -11.128906 25.546875 -11.5625 Z M 13.769531 -20.394531 C 17.925781 -20.394531 21.085938 -17.796875 21.867188 -13.640625 L 5.628906 -13.640625 C 6.367188 -17.710938 9.527344 -20.394531 13.769531 -20.394531 Z M 13.769531 -20.394531 "/></g></g><g style="fill:rgb(49.409485%,85.099792%,34.118652%);fill-opacity:1;"><g transform="translate(223.422868, 53.004713)"><path style="stroke:none;" d="M 14.375 -23.46875 C 11 -23.46875 8.574219 -22.214844 6.886719 -19.789062 L 6.320312 -23.382812 L 3.679688 -23.382812 L 3.679688 0 L 7.359375 0 L 7.359375 -12.6875 C 7.359375 -17.234375 9.785156 -20.003906 14.074219 -20.003906 L 16.453125 -20.003906 L 16.453125 -23.46875 Z M 14.375 -23.46875 "/></g></g><g style="fill:rgb(49.409485%,85.099792%,34.118652%);fill-opacity:1;"><g transform="translate(240.134762, 53.004713)"><path style="stroke:none;" d="M 11.085938 0.519531 C 16.628906 0.519531 20.351562 -2.296875 20.351562 -6.667969 C 20.351562 -12.382812 15.589844 -13.164062 11.5625 -13.8125 C 8.445312 -14.289062 5.757812 -14.765625 5.757812 -17.234375 C 5.757812 -19.269531 7.75 -20.566406 10.910156 -20.566406 C 14.203125 -20.566406 16.195312 -19.183594 16.324219 -16.628906 L 19.789062 -16.628906 C 19.660156 -21.042969 16.28125 -23.859375 11 -23.859375 C 5.714844 -23.859375 2.164062 -21.132812 2.164062 -17.105469 C 2.164062 -11.820312 6.667969 -11 10.652344 -10.304688 C 13.8125 -9.785156 16.714844 -9.265625 16.714844 -6.496094 C 16.714844 -4.242188 14.417969 -2.859375 11.214844 -2.859375 C 7.925781 -2.859375 5.542969 -4.375 5.371094 -7.144531 L 1.730469 -7.144531 C 1.949219 -2.425781 5.542969 0.519531 11.085938 0.519531 Z M 11.085938 0.519531 "/></g></g><g style="fill:rgb(49.409485%,85.099792%,34.118652%);fill-opacity:1;"><g transform="translate(262.345127, 53.004713)"><path style="stroke:none;" d=""/></g></g><g style="fill:rgb(49.409485%,85.099792%,34.118652%);fill-opacity:1;"><g transform="translate(273.688433, 53.004713)"><path style="stroke:none;" d="M 17.582031 0.476562 C 24.726562 0.476562 30.355469 -3.808594 32.085938 -10.652344 L 28.230469 -10.652344 C 26.628906 -6.019531 22.691406 -3.246094 17.582031 -3.246094 C 10.824219 -3.246094 5.933594 -8.140625 5.933594 -15.113281 C 5.933594 -22.082031 10.824219 -27.0625 17.582031 -27.0625 C 22.558594 -27.0625 26.457031 -24.421875 28.058594 -20.046875 L 31.957031 -20.046875 C 30.222656 -26.585938 24.59375 -30.742188 17.582031 -30.742188 C 8.574219 -30.742188 2.035156 -24.207031 2.035156 -15.113281 C 2.035156 -6.0625 8.574219 0.476562 17.582031 0.476562 Z M 17.582031 0.476562 "/></g></g><g style="fill:rgb(49.409485%,85.099792%,34.118652%);fill-opacity:1;"><g transform="translate(307.285412, 53.004713)"><path style="stroke:none;" d="M 3.679688 0 L 7.359375 0 L 7.359375 -31.695312 L 3.679688 -31.695312 Z M 3.679688 0 "/></g></g><g style="fill:rgb(49.409485%,85.099792%,34.118652%);fill-opacity:1;"><g transform="translate(318.368945, 53.004713)"><path style="stroke:none;" d="M 13.640625 0.519531 C 20.003906 0.519531 24.03125 -3.550781 24.03125 -9.828125 L 24.03125 -23.382812 L 20.351562 -23.382812 L 20.351562 -10.433594 C 20.351562 -5.890625 17.839844 -3.03125 13.640625 -3.03125 C 9.527344 -3.03125 6.972656 -5.84375 6.972656 -10.433594 L 6.972656 -23.382812 L 3.289062 -23.382812 L 3.289062 -9.828125 C 3.289062 -3.550781 7.359375 0.519531 13.640625 0.519531 Z M 13.640625 0.519531 "/></g></g><g style="fill:rgb(49.409485%,85.099792%,34.118652%);fill-opacity:1;"><g transform="translate(345.731425, 53.004713)"><path style="stroke:none;" d="M 16.019531 -23.859375 C 12.558594 -23.859375 9.527344 -22.558594 7.359375 -20.394531 L 7.359375 -31.695312 L 3.679688 -31.695312 L 3.679688 0 L 6.539062 0 L 7.058594 -3.289062 C 9.222656 -0.910156 12.382812 0.519531 16.019531 0.519531 C 23.078125 0.519531 28.101562 -4.71875 28.101562 -11.691406 C 28.101562 -18.664062 23.078125 -23.859375 16.019531 -23.859375 Z M 15.761719 -3.03125 C 10.78125 -3.03125 7.144531 -6.796875 7.144531 -11.691406 C 7.144531 -16.585938 10.78125 -20.308594 15.761719 -20.308594 C 20.699219 -20.308594 24.335938 -16.628906 24.335938 -11.691406 C 24.335938 -6.710938 20.699219 -3.03125 15.761719 -3.03125 Z M 15.761719 -3.03125 "/></g></g></g></svg>